<?xml version="1.0" encoding="UTF-8"?>
<svg id="Layer_1" data-name="Layer 1" xmlns="http://www.w3.org/2000/svg" viewBox="0 0 995.67 998.12">
  <defs>
    <style>
      .cls-1, .cls-2 {
        stroke-width: 0px;
      }

      .cls-2 {
        fill: #fff;
      }
    </style>
  </defs>
  <polygon class="cls-1" points="271.36 349.7 206.72 333.22 163.85 288.35 189.42 228.32 216.41 190.29 265.8 187.16 316.44 212.63 351.09 237.83 354.56 286.95 322.28 303.8 271.36 349.7"/>
  <polygon class="cls-1" points="779.06 866.82 170.89 866.82 95.33 281.25 857.47 281.25 779.06 866.82"/>
  <g>
    <path class="cls-2" d="m181.27,333.77h102.34v35.08h-32.6v88.72h-37.14v-88.72h-32.6v-35.08Z"/>
    <path class="cls-2" d="m337.88,416.1h-11.76v41.47h-37.14v-123.8h56.95c31.77,0,49.52,13.41,49.52,42.09,0,17.95-8.05,29.51-21.66,35.28l30.12,46.01v.41h-43.12l-22.9-41.47Zm-11.76-49.31v20.43h19.4c9.49,0,13.21-3.3,13.21-10.11,0-7.43-4.75-10.32-13.82-10.32h-18.78Z"/>
    <path class="cls-2" d="m488.09,438.59h-45.19l-6.4,18.98h-38.17l46.01-123.8h43.95l45.81,123.8h-39.82l-6.19-18.98Zm-35.28-29.71h25.58l-5.16-15.68c-2.48-7.63-4.95-15.27-7.22-22.7h-.41c-2.48,7.43-4.75,15.06-7.43,22.7l-5.36,15.68Z"/>
    <path class="cls-2" d="m523.99,419.4l36.31-7.43c2.68,11.55,12.59,17.12,23.93,17.12,8.46,0,13.82-2.27,13.82-7.43s-5.16-8.25-25.79-11.14c-34.66-4.75-45.19-20.01-45.19-40.44,0-24.76,17.13-39.41,52.2-39.41s50.96,17.54,54.88,39.2l-36.73,7.63c-3.09-11.35-8.46-16.09-20.22-16.09-8.87,0-12.59,3.3-12.59,8.05,0,4.13,1.65,7.63,26.2,11.14,35.9,5.16,45.19,21.87,45.19,39.82,0,24.76-16.3,40.23-54.47,40.23-42.71,0-54.88-20.63-57.57-41.27Z"/>
    <path class="cls-2" d="m720,457.57v-44.77h-41.27v44.77h-37.14v-123.8h37.14v43.95h41.27v-43.95h37.14v123.8h-37.14Z"/>
    <path class="cls-2" d="m217.29,567.61c0-32.1,21.4-54.9,54.72-54.9s54.72,22.8,54.72,54.9-19.82,55.6-54.72,55.6-54.72-23.5-54.72-55.6Zm78.05-.35c0-14.03-7.37-26.31-23.33-26.31s-23.33,12.28-23.33,26.31c0,17.36,7.19,27.89,23.33,27.89s23.33-10.52,23.33-27.89Z"/>
    <path class="cls-2" d="m363.21,591.99v28.59h-31.57v-105.23h80.33v29.82h-48.76v17.01h45.25v29.82h-45.25Z"/>
    <path class="cls-2" d="m441.07,515.34h86.99v29.82h-27.71v75.42h-31.57v-75.42h-27.71v-29.82Z"/>
    <path class="cls-2" d="m599.27,620.57v-38.06h-35.08v38.06h-31.57v-105.23h31.57v37.36h35.08v-37.36h31.57v105.23h-31.57Z"/>
    <path class="cls-2" d="m638.55,515.34h83.83v29.82h-52.26v10.52h48.76v24.03h-48.76v11.05h52.26v29.82h-83.83v-105.23Z"/>
    <path class="cls-2" d="m293.93,783.58h-50.76l-27.85-123.8h39.82l8.46,49.11c2.48,14.86,4.54,27.85,5.98,41.88h.41c1.86-14.65,3.92-28.47,6.19-41.88l8.25-49.11h47.87l7.63,49.11c2.06,13.41,3.71,27.24,5.36,41.88h.41c1.86-13.82,4.13-27.03,6.4-41.88l7.43-49.11h37.76l-28.06,123.8h-51.58l-7.02-52.61c-1.65-13-3.3-27.65-4.75-41.47h-.41c-1.65,13.82-3.51,28.68-5.16,41.47l-6.4,52.61Z"/>
    <path class="cls-2" d="m397.1,659.78h98.63v35.08h-61.49v12.38h57.36v28.27h-57.36v13h61.49v35.08h-98.63v-123.8Z"/>
    <path class="cls-2" d="m504.39,659.78h98.63v35.08h-61.49v12.38h57.36v28.27h-57.36v13h61.49v35.08h-98.63v-123.8Z"/>
    <path class="cls-2" d="m649.23,740.25h-.41v43.33h-37.14v-123.8h37.14v50.96h.62l35.08-50.96h42.09v.41l-48.9,62.52,49.11,60.45v.41h-43.12l-34.46-43.33Z"/>
  </g>
  <rect class="cls-1" x="269.35" y="75.3" width="725.15" height="88.28" transform="translate(39.28 -130.29) rotate(12.15)"/>
  <polygon class="cls-1" points="163.82 161.33 115.02 206.8 54.09 218.62 17.41 164.66 0 121.39 24.07 78.15 72.87 49.31 112.8 33.78 156.01 57.41 152.73 93.67 163.82 161.33"/>
</svg>